<svg width="823" height="2437" viewBox="0 0 823 2437" fill="none" xmlns="http://www.w3.org/2000/svg">
<path d="M411.12 2436.85C530.419 2436.85 822.24 2037.44 822.24 1297.03C822.239 548.959 567.009 41.8587 556.133 20.6739L545.556 -2.89284e-05L276.684 -5.42287e-06L266.107 20.6739C255.231 41.8588 8.23291e-05 548.959 0.000147728 1297.03C0.000212456 2037.44 291.82 2436.85 411.12 2436.85ZM322.056 78.6079L373.745 78.6079L373.745 353.736L448.494 353.736L448.494 78.6079L500.183 78.6079C533.82 151.477 644.86 412.574 706.005 789.578C648.747 697.449 562.038 599.032 430.218 516.454C285.168 425.623 250.222 311.799 242.934 279.098C277.132 179.776 307.181 110.798 322.056 78.6079ZM206.905 391.821C238.375 450.463 293.913 522.625 391.947 584.057C687.131 768.864 733.737 1037.07 740.277 1091.12C743.379 1137.54 745.285 1185.29 746.295 1233.99C692.812 1129.56 598.03 1010.35 429.658 909.18C189.526 764.855 149.124 622.025 148.414 619.509C166.765 535.359 186.835 459.031 206.905 391.821ZM392.582 978.079C744.949 1189.85 740.651 1493.55 740.315 1493.55L740.389 1493.55C703.65 2004.5 533.559 2252.59 448.494 2332.46L448.494 1100.51L373.745 1100.51L373.745 2332.46C278.067 2242.65 74.7492 1915.99 74.7492 1297.03C74.7492 1090.49 95.3799 902.026 124.868 737.461C168.148 802.194 247.681 890.982 392.582 978.079Z" fill="#2CA9BC" fill-opacity="0.11"/>
</svg>
