<svg width="298" height="69" viewBox="0 0 298 69" fill="none" xmlns="http://www.w3.org/2000/svg">
<path d="M147 54.4H160.727V27.2H201.909V54.4H215.636V27.2H270.545V0H298V13.6H284.273V27.2H298V40.8H284.273V68H270.545V40.8H256.818V68H243.091V40.8H229.364V68H188.182V40.8H174.455V68H147V54.4Z" fill="#FFFEFE"/>
<path d="M-1.22533e-06 40.0323C-8.69761e-07 48.1667 25.8967 68.0645 73.9032 68.0645C122.407 68.0645 155.286 50.6616 156.66 49.92L158 49.1988L158 30.8657L156.66 30.1445C155.286 29.4029 122.407 12 73.9032 12C25.8967 12 -1.5809e-06 31.8978 -1.22533e-06 40.0323ZM152.903 33.9594L152.903 37.4839L135.065 37.4839L135.065 42.5806L152.903 42.5806L152.903 46.1051C148.179 48.3986 131.25 55.9699 106.805 60.139C112.779 56.2349 119.16 50.3226 124.514 41.3345C130.404 31.4442 137.784 29.0614 139.904 28.5645C146.344 30.8963 150.816 32.9452 152.903 33.9594ZM132.595 26.1079C128.793 28.2536 124.114 32.0405 120.131 38.7249C108.148 58.8521 90.7583 62.0299 87.2542 62.4759C84.2446 62.6874 81.1483 62.8174 77.9908 62.8862C84.7619 59.2394 92.4912 52.7767 99.0507 41.2963C108.408 24.9229 117.669 22.1681 117.832 22.1196C123.288 23.3709 128.237 24.7394 132.595 26.1079ZM94.5834 38.7683C80.8527 62.7944 61.1613 62.5014 61.1613 62.4784L61.1613 62.4835C28.0323 59.9785 11.9468 48.3808 6.76851 42.5806L86.6452 42.5806L86.6452 37.4839L6.76851 37.4839C12.5916 30.96 33.7712 17.0968 73.9032 17.0968C87.295 17.0968 99.5145 18.5035 110.185 20.5142C105.987 23.4652 100.231 28.8882 94.5834 38.7683Z" fill="#2CA9BC"/>
</svg>
