<svg width="461" height="971" viewBox="0 0 461 971" fill="none" xmlns="http://www.w3.org/2000/svg">
<path d="M445.813 44.5866C444.347 33.676 437.923 26.2269 430.349 23.6382L183.154 945.801L243.604 969.662C251.62 972.826 260.372 969.992 266.131 962.523C322.427 889.48 385.271 709.76 427.957 550.515C478.982 360.165 458.597 139.735 445.813 44.5866Z" fill="#D0D5D9"/>
<path d="M409.368 30.2019C352.902 98.0153 229.549 261.709 178.524 452.056C135.836 611.301 99.5205 801.49 109.63 900.748C110.664 910.9 116.366 919.437 124.382 922.601L183.154 945.799L430.349 23.6386C423.343 21.246 415.356 23.0078 409.368 30.2019Z" fill="#AEC1CF"/>
<path d="M150.311 14.3064C146.136 4.48107 138.128 -0.193013 130.265 0.189412V969.91H193.832C202.263 969.91 209.861 963.932 213.433 954.666C248.35 864.074 262.298 669.58 262.298 502.12C262.298 301.955 186.721 99.9924 150.311 14.3064Z" fill="#466375"/>
<path d="M111.987 14.3059C75.5771 99.9919 0 301.954 0 502.123C0 669.582 13.9475 864.076 48.8646 954.668C52.4364 963.935 60.035 969.913 68.466 969.913H130.268V0.192139C122.995 0.545146 115.846 5.21922 111.987 14.3059Z" fill="#314B5A"/>
</svg>
