<svg width="226" height="227" viewBox="0 0 226 227" fill="none" xmlns="http://www.w3.org/2000/svg">
<path d="M169.409 100.256C192.34 89.4872 191.332 53.0087 214.046 54.4414C182.068 33.1071 182.89 78.6254 143.586 64.0574C152.168 40.1692 125.818 15.1131 142.881 0C105.244 7.62273 137.881 39.2349 99.8174 56.8473C89.0883 33.8156 52.777 34.8278 54.2034 12.0142C32.9624 44.1324 78.2818 43.3071 63.7774 82.7833C39.9936 74.1639 15.047 100.629 0 83.4918C7.58941 121.294 39.0634 88.514 56.5988 126.744C33.6678 137.521 34.6756 173.991 11.9617 172.559C43.9395 193.893 43.1178 148.375 82.4214 162.943C73.8397 186.831 100.189 211.887 83.1269 227C120.764 219.377 88.1271 187.765 126.19 170.153C136.919 193.184 173.231 192.172 171.804 214.986C193.045 182.868 147.726 183.693 162.23 144.217C186.014 152.836 210.961 126.371 226 143.508C218.411 105.706 186.937 138.486 169.401 100.256H169.409Z" fill="#FFD41A"/>
</svg>
