<?xml version="1.0" encoding="iso-8859-1"?>
<!-- Uploaded to: SVG Repo, www.svgrepo.com, Generator: SVG Repo Mixer Tools -->
<!DOCTYPE svg PUBLIC "-//W3C//DTD SVG 1.1//EN" "http://www.w3.org/Graphics/SVG/1.1/DTD/svg11.dtd">
<svg height="800px" width="800px" version="1.1" id="Capa_1" xmlns="http://www.w3.org/2000/svg" xmlns:xlink="http://www.w3.org/1999/xlink" 
	 viewBox="0 0 297 297" xml:space="preserve">
<g>
	<g>
		<path style="fill:#D0D5D9;" d="M228.468,13.589c-0.544-3.338-2.929-5.617-5.741-6.409l-91.771,282.129l22.442,7.3
			c2.976,0.968,6.225,0.101,8.363-2.184c20.9-22.347,44.231-77.331,60.078-126.051C240.782,110.138,233.214,42.699,228.468,13.589z"
			/>
	</g>
	<g>
		<path style="fill:#AEC1CF;" d="M214.938,9.188c-20.963,20.747-66.758,70.828-85.701,129.063
			c-15.848,48.72-29.33,106.907-25.577,137.274c0.384,3.106,2.501,5.718,5.477,6.686l21.819,7.097L222.727,7.18
			C220.126,6.448,217.161,6.987,214.938,9.188z"/>
	</g>
	<g>
		<path style="fill:#466375;" d="M118.763,4.325c-1.55-3.006-4.523-4.436-7.442-4.319v296.679h23.599
			c3.13,0,5.951-1.829,7.277-4.664c12.963-27.716,18.141-87.22,18.141-138.453C160.338,92.329,132.28,30.54,118.763,4.325z"/>
	</g>
	<g>
		<path style="fill:#314B5A;" d="M104.535,4.325C91.018,30.54,62.96,92.329,62.96,153.569c0,51.233,5.178,110.737,18.141,138.453
			c1.326,2.835,4.147,4.664,7.277,4.664h22.944V0.007C108.622,0.115,105.968,1.545,104.535,4.325z"/>
	</g>
</g>
</svg>